:SAMPLES-PER-SECOND 30
:FULLY-SPECIFIED
:DEGREES
149
root  17.0962221 39.72222336 -10.10497762 -20.65449905 -71.49389648 22.09950066
lowerback  14.13899994 2.728630066 -4.77835989
upperback  4.541009903 2.624650002 -2.730489969
thorax  -3.20717001 1.218629956 -0.6024289727
lowerneck  -4.372529984 10.34790039 -4.146780014
upperneck  8.572070122 14.38669968 -3.072429895
head  3.473959923 6.831110001 0.3014680147
lclavicle  0 -9.442270133e-015 7.951389973e-016
lhumerus  13.15159988 10.6388998 59.41899872
lradius  2.724624525e-031 -2.246166786e-031 140.4980011
lwrist  -7.062250077e-031 8.827812596e-032 17.6909008
lhand  -1.496451383e-031 -27.76390076 20.11240005
lfingers  90 7.125020027 -90
lthumb  89.89689403 5.08795885 91.16245106
rclavicle  0 -9.442270133e-015 7.951389973e-016
rhumerus  7.11495018 23.51779938 -76.19159698
rradius  -2.615666583e-031 2.372157744e-031 137.7949982
rwrist  7.062250077e-031 1.765562519e-031 -12.25730038
rhand  -7.920061211e-032 -33.2840004 9.303460121
rfingers  -90 -7.125020027 -90
rthumb  -92.93752616 -24.25625642 -97.11982154
rfemur  -23.625 12.89620018 -3.032880068
rtibia  -0 0 60.5802002
rfoot  -0 -8.89387989 -9.480939865
rtoes  5.373923086 19.29304026 -105.8922705
lfemur  -23.44449997 6.536270142 -4.828410149
ltibia  -0 0 60.90019989
lfoot  4.731785592e-032 -7.640540123 -0.2937189937
ltoes  -4.250644065 -19.5611806 -102.515957
150
root  17.00417826 39.64999942 -10.06495558 -20.21649933 -71.13379669 21.31669998
lowerback  13.93959999 2.606750011 -4.882969856
upperback  4.622570038 2.467540026 -2.736560106
thorax  -3.013560057 1.137009978 -0.5129839778
lowerneck  -4.326930046 10.50870037 -4.552909851
upperneck  9.072440147 14.62489986 -2.836359978
head  3.587719917 6.923799992 0.4591329992
lclavicle  0 -9.442270133e-015 7.951389973e-016
lhumerus  13.22500038 10.9460001 59.35860062
lradius  2.69518898e-031 -2.281403164e-031 139.753006
lwrist  -7.062250077e-031 -0 18.80520058
lhand  -1.496451383e-031 -27.76390076 20.11240005
lfingers  90 7.125020027 -90
lthumb  89.89689403 5.08795885 91.16245106
rclavicle  0 -9.442270133e-015 7.951389973e-016
rhumerus  7.027070045 24.17539978 -75.85849762
rradius  -2.600626986e-031 2.388636288e-031 137.4329987
rwrist  1.412450015e-030 1.765562519e-031 -12.16889954
rhand  -7.920061211e-032 -33.2840004 9.303460121
rfingers  -90 -7.125020027 -90
rthumb  -92.93752616 -24.25625642 -97.11982154
rfemur  -22.65250015 13.84589958 -2.877249956
rtibia  -0 0 58.80619812
rfoot  -0 -11.58469963 -9.594109535
rtoes  5.373923086 19.29304026 -105.8922705
lfemur  -23.25440025 6.257589817 -4.124909878
ltibia  -0 0 60.18349838
lfoot  4.456663376e-032 -7.94299984 1.286960006
ltoes  -4.250644065 -19.5611806 -102.515957
151
root  16.9022883 39.55866596 -10.02053313 -19.30349922 -70.86820221 20.09970093
lowerback  13.65089989 2.65395999 -4.631440163
upperback  4.720940113 2.592969894 -2.69382
thorax  -2.749670029 1.196470022 -0.6145570278
lowerneck  -4.387899876 10.51860046 -5.007890224
upperneck  9.546159744 14.68220043 -2.714600086
head  3.720259905 6.918429852 0.5888389945
lclavicle  0 -9.442270133e-015 7.951389973e-016
lhumerus  13.44349957 10.89229965 59.79980087
lradius  2.665297154e-031 -2.316254545e-031 139.0079956
lwrist  -7.062250077e-031 8.827812596e-032 19.07119942
lhand  -1.496451383e-031 -27.76390076 20.11240005
lfingers  90 7.125020027 -90
lthumb  89.89689403 5.08795885 91.16245106
rclavicle  0 -9.442270133e-015 7.951389973e-016
rhumerus  6.707789898 24.19560051 -75.31169891
rradius  -2.589467746e-031 2.400729229e-031 137.1660004
rwrist  0 -1.765562519e-031 -11.86900043
rhand  -7.920061211e-032 -33.2840004 9.303460121
rfingers  -90 -7.125020027 -90
rthumb  -92.93752616 -24.25625642 -97.11982154
rfemur  -21.5746994 14.91090012 -2.542500019
rtibia  -0 0 57.06629944
rfoot  -0 -14.21720028 -9.726869583
rtoes  5.373923086 19.29304026 -105.8922705
lfemur  -23.06290054 5.980529785 -3.260999918
ltibia  -0 0 59.40269852
lfoot  4.457118586e-032 -7.984829903 2.77809
ltoes  -4.250644065 -19.5611806 -102.515957
152
root  16.79595587 39.43733456 -9.971133555 -17.65180016 -70.64559937 18.18549919
lowerback  13.29990005 2.614759922 -4.113609791
upperback  4.71009016 2.638590097 -2.713570118
thorax  -2.550189972 1.222919941 -0.9165909886
lowerneck  -4.448840141 10.55990028 -5.055429935
upperneck  10.05220032 14.76469994 -2.685410023
head  3.905560017 6.932859898 0.6326599717
lclavicle  0 -9.442270133e-015 7.951389973e-016
lhumerus  13.38300037 11.02789974 60.07519913
lradius  2.636964553e-031 -2.348459491e-031 138.3119965
lwrist  -1.412450015e-030 8.827812596e-032 18.50799942
lhand  -1.496451383e-031 -27.76390076 20.11240005
lfingers  90 7.125020027 -90
lthumb  89.89689403 5.08795885 91.16245106
rclavicle  0 -9.442270133e-015 7.951389973e-016
rhumerus  6.105929852 24.34300041 -75.11820221
rradius  -2.580104013e-031 2.410789771e-031 136.9429932
rwrist  1.412450015e-030 1.765562519e-031 -11.15100002
rhand  -7.920061211e-032 -33.2840004 9.303460121
rfingers  -90 -7.125020027 -90
rthumb  -92.93752616 -24.25625642 -97.11982154
rfemur  -20.47340012 16.21069908 -1.944790006
rtibia  -0 0 55.65140152
rfoot  -0 -16.43059921 -10.54940033
rtoes  5.373923086 19.29304026 -105.8922705
lfemur  -22.96750069 5.678649902 -2.132950068
ltibia  -0 0 58.58530045
lfoot  4.456560446e-032 -7.933509827 3.939729929
ltoes  -4.250644065 -19.5611806 -102.515957
